<?xml version="1.0" encoding="utf-8"?>
<!-- Generator: Adobe Illustrator 25.0.0, SVG Export Plug-In . SVG Version: 6.00 Build 0)  -->
<svg version="1.1" id="Layer_1" xmlns="http://www.w3.org/2000/svg" xmlns:xlink="http://www.w3.org/1999/xlink" x="0px" y="0px"
	 viewBox="0 0 1066 107.5" style="enable-background:new 0 0 1066 107.5;" xml:space="preserve">
<style type="text/css">
	.st0{fill:#570031;}
</style>
<g>
	<g>
		<g>
			<g>
				<path class="st0" d="M0,10.9h18.3C45.4,10.9,68,25.4,68,55.3c0,30.6-22.1,45.4-50,45.4H0V10.9z M11,90.5h3.9
					c22.5,0,42-8.6,42-34.7c0-26.2-19.5-34.7-42-34.7H11V90.5z"/>
				<path class="st0" d="M137.7,10.9h47.5v10.3h-36.5v25.2h35.4v10.3h-35.4v34h36.5v10.3h-47.5V10.9z"/>
				<path class="st0" d="M296.9,27.9c-3.3-5.6-7.5-8.5-14.2-8.5c-7,0-14.8,4.9-14.8,12.8c0,7,6.8,10.7,12.3,12.9l6.3,2.5
					c12.6,5,21.9,12,21.9,27.1c0,16.3-12.4,28-28.3,28c-14.3,0-25.5-10.7-27.3-25.2l11.2-2.4c-0.1,9.9,7.6,17,17.1,17
					c9.5,0,16.3-8.1,16.3-17.5c0-9.7-7.6-13.8-15.3-17l-6.1-2.6c-10.1-4.4-19.3-10.3-19.3-22.8c0-14.5,12.7-23.2,26.1-23.2
					c9.9,0,18,4.9,22.8,13.6L296.9,27.9z"/>
				<path class="st0" d="M403.1,100.7h-11V21.1h-21V10.9h53.1v10.3h-21V100.7z"/>
				<path class="st0" d="M502.2,100.7h-11V10.9h11V100.7z"/>
				<path class="st0" d="M576.4,6.6l66.4,70.7V10.9h11v93.6l-66.4-70.7v67h-11V6.6z"/>
				<path class="st0" d="M719.1,10.9h12.7l21.7,38.4l21.7-38.4h12.7L759,61.6v39.1h-11V61.6L719.1,10.9z"/>
			</g>
		</g>
		<g>
			<g>
				<g>
					<path class="st0" d="M902.1,56.2c6.2,0,11.3-5,11.4-11.3v-20l0,0c0-6.4-5.1-11.6-11.4-11.6c-6.3,0-11.4,5.2-11.4,11.6l0,0v20
						C890.8,51.1,895.9,56.2,902.1,56.2z M938.6,4.4c-7.1,0-12,5-18,8c-0.4,0.2-0.9,0.4-1.3,0.6v31.9c-0.2,9.5-7.8,17.1-17.2,17.1
						c-9.5,0-17.2-7.8-17.2-17.5c0,0,0-31.6,0-31.6c-0.4-0.2-0.9-0.4-1.3-0.6c-6-3-10.9-8-18-8c-12,0-20.8,12.5-16.7,24.1
						c1.8,5.1,5.4,7.9,9.7,10.6c5.1,3.3,9.8,7.5,13.6,12.3c5.7,7.2,9.4,15.7,11.2,24.7c0.9,4.3,1.4,9.9,1.7,13.9
						c0.8,9.1,7,16.6,17,16.6c9.9,0,16.1-7.5,16.9-16.6c0.4-4,0.9-9.6,1.7-13.9c1.8-9,5.6-17.5,11.2-24.7c3.8-4.8,8.4-9,13.6-12.3
						c4.3-2.8,7.9-5.6,9.7-10.6C959.3,16.9,950.6,4.4,938.6,4.4z"/>
				</g>
				<g>
					<path class="st0" d="M993,39.2c0-24,12.1-39.2,36.8-39.2c22.6,0,35.3,15.5,35.3,33.7c0,19.8-13.3,29.2-26,37.8
						c-8,5.2-17.4,12-20.9,18.8h47.9v17.2h-74.5c0.8-20.1,13.2-32.5,25-41.8c13-10.5,27.3-17.8,27.3-31.4c0-9.8-5.2-16.5-14.4-16.5
						c-10.4,0-16.7,7.7-17,21.4H993"/>
				</g>
			</g>
		</g>
	</g>
	<g>
		<g>
			<g>
				<path class="st0" d="M924.4,99.4c0-2.7,2-4.8,4.5-4.8c2.5,0,4.5,2.2,4.5,4.8c0,2.7-2,4.8-4.5,4.8
					C926.4,104.2,924.4,102.1,924.4,99.4z M932.8,99.4c0-2.3-1.8-4.1-3.9-4.1c-2.1,0-3.8,1.8-3.8,4.1c0,2.3,1.8,4.1,3.8,4.1
					C931,103.5,932.8,101.6,932.8,99.4z M931.1,102h-0.8l-1.5-2.4h-0.8v2.4h-0.7v-5.3h2.2c0.9,0,1.8,0.3,1.8,1.4
					c0,1-0.7,1.4-1.6,1.4L931.1,102z M928.8,98.8c0.6,0,1.7,0.1,1.7-0.7c0-0.5-0.7-0.6-1.2-0.6h-1.3v1.4H928.8z"/>
			</g>
		</g>
	</g>
</g>
</svg>
