<svg width="3461" height="680" viewBox="0 0 3461 680" fill="none" xmlns="http://www.w3.org/2000/svg">
<g clip-path="url(#clip0_213_2822)">
<path d="M0.230469 35.9492H59.6705C147.68 35.9492 220.84 83.1492 220.84 180.269C220.84 277.389 149.21 327.689 58.5305 327.689H0.240479V35.9492H0.230469ZM36.0405 294.419H48.6105C121.76 294.419 185.01 266.559 185.01 181.819C185.01 97.0792 121.76 69.2192 48.6105 69.2192H36.0405V294.409V294.419Z" fill="white"/>
<path d="M447.172 35.9492H601.482V69.2292H482.992V150.869H598.052V184.149H482.992V294.419H601.482V327.699H447.172V35.9592V35.9492Z" fill="white"/>
<path d="M963.831 91.2795C953.171 73.0895 939.451 63.8095 917.731 63.8095C894.871 63.8095 869.731 79.6695 869.731 105.21C869.731 128.04 891.831 140.03 909.741 147L930.311 155.13C971.081 171.38 1001.56 194.21 1001.56 242.96C1001.56 295.97 961.171 333.89 909.741 333.89C863.251 333.89 827.061 299.07 820.961 252.25L857.151 244.51C856.771 276.62 881.911 299.839 912.781 299.839C943.651 299.839 965.741 273.53 965.741 242.96C965.741 212.39 940.981 198.08 916.211 187.63L896.401 179.12C863.631 164.8 833.921 145.839 833.921 105.219C833.921 58.0195 875.071 29.7695 918.501 29.7695C950.511 29.7695 976.791 45.6295 992.411 73.8795L963.831 91.2895V91.2795Z" fill="white"/>
<path d="M1308.66 327.689H1272.85V69.2194H1204.65V35.9395H1376.86V69.2194H1308.66V327.689Z" fill="white"/>
<path d="M1630.25 327.689H1594.44V35.9492H1630.25V327.689Z" fill="white"/>
<path d="M1871.06 22.0295L2086.71 251.469V35.9495H2122.53V339.68L1906.88 110.24V327.689H1871.07V22.0195L1871.06 22.0295Z" fill="white"/>
<path d="M2334.39 35.9492H2375.54L2446.03 160.539L2516.52 35.9492H2557.67L2463.94 200.779V327.689H2428.13V200.779L2334.4 35.9492H2334.39Z" fill="white"/>
<path d="M2928.33 183C2948.48 183 2964.91 166.64 2965.42 146.31V81.4798C2965.38 60.7498 2948.79 43.9198 2928.33 43.9198C2907.87 43.9198 2891.27 60.7398 2891.22 81.4798V146.31C2891.78 166.64 2908.14 183 2928.33 183ZM3046.79 14.8398C3023.79 14.8398 3007.99 30.9798 2988.35 40.7098C2987.01 41.3998 2985.56 42.0398 2984.08 42.6898V146.22C2983.54 177.04 2958.77 201.87 2928.33 201.87C2897.89 201.87 2872.53 176.49 2872.53 145.22V42.6898C2871.08 42.0398 2869.64 41.3798 2868.27 40.7098C2848.63 30.9898 2832.86 14.8398 2809.81 14.8398C2770.71 14.8398 2742.42 55.5198 2755.75 92.9498C2761.58 109.48 2773.4 118.5 2787.2 127.51C2803.83 138.35 2818.85 151.76 2831.23 167.43C2849.58 190.68 2861.82 218.46 2867.62 247.59C2870.4 261.43 2872.14 279.81 2873.27 292.66C2875.91 322.26 2896.09 346.53 2928.32 346.53C2960.55 346.53 2980.67 322.26 2983.33 292.66C2984.5 279.81 2986.21 261.43 2988.98 247.59C2994.83 218.47 3007.05 190.68 3025.38 167.43C3037.79 151.77 3052.8 138.36 3069.43 127.51C3083.24 118.5 3095.03 109.48 3100.89 92.9498C3114.19 55.5198 3085.93 14.8398 3046.79 14.8398Z" fill="white"/>
<path d="M3223.45 127.969C3223.45 50.1094 3262.78 0.689453 3342.88 0.689453C3416.14 0.689453 3457.43 51.0995 3457.43 110.009C3457.43 174.409 3414.15 204.849 3372.88 232.799C3346.83 249.779 3316.35 271.739 3305.04 293.709H3460.38V349.619H3218.54C3220.98 284.219 3261.3 244.279 3299.64 213.829C3341.92 179.889 3388.12 155.939 3388.12 111.979C3388.12 80.0394 3371.4 58.5795 3341.42 58.5795C3307.51 58.5795 3287.35 83.5494 3286.37 127.969H3223.46" fill="white"/>
<path d="M3000.77 323.229C3000.77 314.519 3007.29 307.539 3015.51 307.539C3023.73 307.539 3030.25 314.519 3030.25 323.229C3030.25 331.939 3023.77 338.909 3015.51 338.909C3007.25 338.909 3000.77 331.949 3000.77 323.229ZM3028.01 323.229C3028.01 315.819 3022.25 309.969 3015.51 309.969C3008.77 309.969 3003.04 315.819 3003.04 323.229C3003.04 330.639 3008.79 336.509 3015.51 336.509C3022.23 336.509 3028.01 330.629 3028.01 323.229ZM3022.52 331.709H3019.81L3014.98 323.779H3012.27V331.709H3010.03V314.539H3017.05C3019.93 314.539 3022.75 315.379 3022.75 319.079C3022.75 322.449 3020.53 323.699 3017.67 323.769L3022.53 331.699L3022.52 331.709ZM3014.98 321.369C3016.97 321.369 3020.47 321.769 3020.47 319.049C3020.47 317.279 3018.31 316.949 3016.58 316.949H3012.27V321.369H3014.98Z" fill="white"/>
<path d="M1094.64 677.699L1092.51 651.309C1095.42 651.889 1098.72 652.089 1102.21 652.089C1105.9 652.089 1107.64 650.339 1107.64 646.659V614.059L1093.28 619.489L1089.4 592.129L1107.64 586.889V556.419H1092.5V530.029H1107.64V500.339H1134.81V530.029H1150.14V556.419H1134.81V580.679L1153.05 575.439V602.029L1134.81 608.049V655.789C1134.81 670.929 1126.66 678.499 1110.55 678.499C1104.92 678.499 1099.68 678.309 1094.63 677.719L1094.64 677.699ZM1169.75 613.269V561.839H1241.75V645.099C1241.75 648.209 1242.33 649.759 1243.3 649.759H1244.08C1245.63 649.759 1246.6 648.399 1247.19 645.879C1248.16 639.479 1248.74 632.679 1249.32 625.499L1269.89 630.739C1269.31 641.409 1268.14 650.919 1266.01 659.659C1263.49 671.299 1257.08 677.129 1246.41 677.129H1234.96C1221.96 677.129 1215.36 669.749 1215.36 655.009V588.439H1196.34V610.369C1196.34 640.059 1185.67 663.159 1164.51 679.269L1143.94 661.799C1161.21 647.629 1169.75 631.519 1169.75 613.279V613.269ZM1184.89 512.539L1205.46 498.949C1213.42 503.409 1221.37 509.429 1228.94 516.999L1217.49 524.569H1265.23V551.159H1153.05V524.569H1199.24C1194.78 520.489 1189.92 516.609 1184.88 512.539H1184.89Z" fill="white"/>
<path d="M1484.93 500.311H1510.55V528.45H1544.71V555.041H1510.55V582.21H1540.24V678.47H1515.2V671.681H1485.7V678.47H1460.66V582.21H1484.92V500.311H1484.93ZM1485.71 608.801V645.09H1515.21V608.801H1485.71ZM1599.25 674.01C1592.84 669.55 1587.02 662.56 1581.98 653.44C1573.25 661.01 1564.71 667.61 1556.17 673.24L1541.81 652.09C1550.93 646.46 1561.22 638.89 1572.86 629.19C1568.78 616.19 1566.26 599.501 1565.29 579.311L1543.17 584.551L1539.48 558.74L1563.74 553.5C1563.16 537.78 1563.16 520.12 1563.74 500.32H1588.78C1588.78 516.04 1588.97 532.15 1589.56 548.84L1630.51 539.911L1634.97 565.531L1590.33 574.651C1590.72 584.741 1591.88 595.03 1594.02 605.7C1600.62 595.03 1605.86 583.96 1609.93 572.32L1631.28 582.22C1624.1 601.43 1614.01 618.51 1600.81 633.07C1603.91 641.61 1607.21 647.631 1610.71 651.311C1612.26 652.671 1613.23 652.28 1613.82 649.76C1615.18 643.16 1615.95 634.82 1615.95 624.72L1637.3 632.291C1637.3 644.901 1635.75 655.38 1632.64 663.34C1629.15 673.43 1623.32 678.48 1615.17 678.48C1607.6 678.48 1602.36 676.931 1599.26 674.021L1599.25 674.01ZM1590.32 513.311L1609.15 501.86C1616.72 511.95 1622.35 521.27 1625.84 530L1607.01 542.031C1602.35 531.361 1596.72 521.851 1590.32 513.311Z" fill="white"/>
<path d="M1834.85 628.6L1823.4 607.25C1836.6 604.73 1848.24 601.04 1858.33 595.99H1824.95V578.52H1873.47V573.86H1842.42V556.39H1873.47V551.93H1856.78V534.46H1873.47V530H1899.28V534.46H1928V530H1953.81V534.46H1970.5V551.93H1953.81V556.39H1984.86V573.86H1953.81V578.52H2002.33V595.99H1967.4C1978.07 601.62 1990.49 605.5 2004.66 608.02L1991.66 629.17C1984.29 626.84 1977.3 624.12 1970.51 621.02V648.19H1943.92V620.24H1880.26V648.19H1853.67V621.8C1847.85 624.32 1841.44 626.46 1834.84 628.59L1834.85 628.6ZM1893.85 501.87L1925.1 498.18L1932.67 508.66H1998.66V547.48H1973.62V527.68H1853.68V547.48H1828.84V508.66H1898.51L1893.85 501.87ZM1885.7 648.2C1895.21 642.18 1900.06 634.03 1900.06 623.94H1926.45C1925.67 659.46 1902.97 675.56 1839.31 678.48L1831.74 657.33C1857.94 657.33 1875.99 654.23 1885.69 648.21L1885.7 648.2ZM1893.27 595.99C1891.52 597.74 1889.58 599.48 1887.64 601.23H1939.26L1933.44 595.99H1893.27ZM1899.29 551.16V555.82H1928.01V551.16H1899.29ZM1899.29 573.09V577.75H1928.01V573.09H1899.29ZM1916.76 664.11L1926.46 645.87C1951.88 649.95 1975.37 654.6 1997.1 659.65L1987.98 678.48C1965.66 672.85 1941.98 668.19 1916.75 664.12L1916.76 664.11Z" fill="white"/>
<path d="M2246.88 554.26H2193.12V531.55H2266.67V526.12C2247.46 526.7 2228.44 526.9 2209.81 526.9L2206.7 504.19C2256.19 504.77 2303.93 502.64 2349.93 498.17L2355.36 520.1C2335.18 521.65 2315.19 523.2 2295.39 524.56V531.55H2368.94V554.26H2315.18C2334.39 560.28 2354 564.93 2374.18 567.85L2362.15 590.56C2333.23 583.57 2311.11 575.03 2295.39 564.75V580.66H2266.67V564.75C2252.5 575.04 2230.38 583.58 2200.68 590.56L2187.87 567.85C2210.96 563.77 2230.76 559.31 2246.87 554.26H2246.88ZM2234.85 677.69L2232.52 655.76C2240.67 656.73 2249.6 657.31 2259.11 657.31C2264.16 657.31 2266.68 655.37 2266.68 651.29V644.5H2192.35V623.15H2266.68V612.67L2281.82 606.46H2224.18V585.31H2336.36V606.46L2295.41 623.15H2369.74V644.5H2295.41V655.76C2295.41 670.9 2286.29 678.47 2268.24 678.47C2257.95 678.47 2246.89 678.28 2234.86 677.69H2234.85Z" fill="white"/>
</g>
<defs>
<clipPath id="clip0_213_2822">
<rect width="3461" height="680" fill="white"/>
</clipPath>
</defs>
</svg>
